<svg width="19" height="19" viewBox="0 0 19 19" fill="none" xmlns="http://www.w3.org/2000/svg">
<path d="M4.68848 17.4362H7.68848H12.1885H15.1885C16.0157 17.4362 16.6885 16.7635 16.6885 15.9362V9.18622C16.6885 8.98747 16.6097 8.79622 16.4687 8.65597L10.4687 2.65597C10.1755 2.36272 9.70148 2.36272 9.40823 2.65597L3.40823 8.65597C3.26723 8.79622 3.18848 8.98747 3.18848 9.18622V15.9362C3.18848 16.7635 3.86123 17.4362 4.68848 17.4362ZM8.43848 15.9362V12.1862H11.4385V15.9362H8.43848ZM4.68848 9.49672L9.93848 4.24672L15.1885 9.49672L15.1892 15.9362H12.9385V12.1862C12.9385 11.359 12.2657 10.6862 11.4385 10.6862H8.43848C7.61123 10.6862 6.93848 11.359 6.93848 12.1862V15.9362H4.68848V9.49672Z" fill="#9397AD"/>
</svg>
