<svg width="61" height="61" viewBox="0 0 61 61" fill="none" xmlns="http://www.w3.org/2000/svg">
<rect x="0.936035" y="0.936035" width="60" height="60" rx="30" fill="white"/>
<path d="M40.2695 21.6028H21.6029C20.316 21.6028 19.2695 22.6493 19.2695 23.9361V37.9361C19.2695 39.223 20.316 40.2695 21.6029 40.2695H40.2695C41.5564 40.2695 42.6029 39.223 42.6029 37.9361V23.9361C42.6029 22.6493 41.5564 21.6028 40.2695 21.6028ZM40.2695 23.9361V24.5323L30.9362 31.7925L21.6029 24.5335V23.9361H40.2695ZM21.6029 37.9361V27.4875L30.2199 34.1899C30.4299 34.3545 30.683 34.4361 30.9362 34.4361C31.1894 34.4361 31.4425 34.3545 31.6525 34.1899L40.2695 27.4875L40.2719 37.9361H21.6029Z" fill="#6366F1"/>
</svg>
